solid STL generated by MeshLab
  facet normal -1.000000e+00 -0.000000e+00 -0.000000e+00
    outer loop
      vertex   0.000000e+00  1.000000e+01  1.000000e+01
      vertex   0.000000e+00  1.000000e+01  0.000000e+00
      vertex   0.000000e+00  0.000000e+00  1.000000e+01
    endloop
  endfacet
  facet normal -1.000000e+00  0.000000e+00  0.000000e+00
    outer loop
      vertex   0.000000e+00  0.000000e+00  1.000000e+01
      vertex   0.000000e+00  1.000000e+01  0.000000e+00
      vertex   0.000000e+00  0.000000e+00  0.000000e+00
    endloop
  endfacet
  facet normal  0.000000e+00  0.000000e+00  1.000000e+00
    outer loop
      vertex   1.000000e+01  1.000000e+01  1.000000e+01
      vertex   0.000000e+00  1.000000e+01  1.000000e+01
      vertex   1.000000e+01  0.000000e+00  1.000000e+01
    endloop
  endfacet
  facet normal  0.000000e+00  0.000000e+00  1.000000e+00
    outer loop
      vertex   1.000000e+01  0.000000e+00  1.000000e+01
      vertex   0.000000e+00  1.000000e+01  1.000000e+01
      vertex   0.000000e+00  0.000000e+00  1.000000e+01
    endloop
  endfacet
  facet normal  1.000000e+00  0.000000e+00 -0.000000e+00
    outer loop
      vertex   1.000000e+01  1.000000e+01  0.000000e+00
      vertex   1.000000e+01  1.000000e+01  1.000000e+01
      vertex   1.000000e+01  0.000000e+00  0.000000e+00
    endloop
  endfacet
  facet normal  1.000000e+00  0.000000e+00  0.000000e+00
    outer loop
      vertex   1.000000e+01  0.000000e+00  0.000000e+00
      vertex   1.000000e+01  1.000000e+01  1.000000e+01
      vertex   1.000000e+01  0.000000e+00  1.000000e+01
    endloop
  endfacet
  facet normal -8.944272e-01 -0.000000e+00 -4.472136e-01
    outer loop
      vertex   7.500000e+00  1.000000e+01  5.000000e+00
      vertex   1.000000e+01  1.000000e+01  0.000000e+00
      vertex   7.500000e+00 -3.469447e-15  5.000000e+00
    endloop
  endfacet
  facet normal -8.944272e-01  0.000000e+00 -4.472136e-01
    outer loop
      vertex   7.500000e+00 -3.469447e-15  5.000000e+00
      vertex   1.000000e+01  1.000000e+01  0.000000e+00
      vertex   1.000000e+01  0.000000e+00  0.000000e+00
    endloop
  endfacet
  facet normal  8.944272e-01  0.000000e+00 -4.472136e-01
    outer loop
      vertex   5.000000e+00  1.000000e+01  0.000000e+00
      vertex   7.500000e+00  1.000000e+01  5.000000e+00
      vertex   5.000000e+00  0.000000e+00  0.000000e+00
    endloop
  endfacet
  facet normal  8.944272e-01  0.000000e+00 -4.472136e-01
    outer loop
      vertex   5.000000e+00  0.000000e+00  0.000000e+00
      vertex   7.500000e+00  1.000000e+01  5.000000e+00
      vertex   7.500000e+00 -3.469447e-15  5.000000e+00
    endloop
  endfacet
  facet normal -8.944272e-01 -0.000000e+00 -4.472136e-01
    outer loop
      vertex   2.500000e+00  1.000000e+01  5.000000e+00
      vertex   5.000000e+00  1.000000e+01  0.000000e+00
      vertex   2.500000e+00 -3.469447e-15  5.000000e+00
    endloop
  endfacet
  facet normal -8.944272e-01  0.000000e+00 -4.472136e-01
    outer loop
      vertex   2.500000e+00 -3.469447e-15  5.000000e+00
      vertex   5.000000e+00  1.000000e+01  0.000000e+00
      vertex   5.000000e+00  0.000000e+00  0.000000e+00
    endloop
  endfacet
  facet normal  8.944272e-01  0.000000e+00 -4.472136e-01
    outer loop
      vertex   0.000000e+00  1.000000e+01  0.000000e+00
      vertex   2.500000e+00  1.000000e+01  5.000000e+00
      vertex   0.000000e+00  0.000000e+00  0.000000e+00
    endloop
  endfacet
  facet normal  8.944272e-01  0.000000e+00 -4.472136e-01
    outer loop
      vertex   0.000000e+00  0.000000e+00  0.000000e+00
      vertex   2.500000e+00  1.000000e+01  5.000000e+00
      vertex   2.500000e+00 -3.469447e-15  5.000000e+00
    endloop
  endfacet
  facet normal  0.000000e+00  1.000000e+00  0.000000e+00
    outer loop
      vertex   2.500000e+00  1.000000e+01  5.000000e+00
      vertex   0.000000e+00  1.000000e+01  0.000000e+00
      vertex   0.000000e+00  1.000000e+01  1.000000e+01
    endloop
  endfacet
  facet normal  0.000000e+00  1.000000e+00  0.000000e+00
    outer loop
      vertex   1.000000e+01  1.000000e+01  1.000000e+01
      vertex   1.000000e+01  1.000000e+01  0.000000e+00
      vertex   7.500000e+00  1.000000e+01  5.000000e+00
    endloop
  endfacet
  facet normal  0.000000e+00  1.000000e+00 -0.000000e+00
    outer loop
      vertex   5.000000e+00  1.000000e+01  0.000000e+00
      vertex   2.500000e+00  1.000000e+01  5.000000e+00
      vertex   7.500000e+00  1.000000e+01  5.000000e+00
    endloop
  endfacet
  facet normal  0.000000e+00  1.000000e+00  0.000000e+00
    outer loop
      vertex   7.500000e+00  1.000000e+01  5.000000e+00
      vertex   2.500000e+00  1.000000e+01  5.000000e+00
      vertex   0.000000e+00  1.000000e+01  1.000000e+01
    endloop
  endfacet
  facet normal  0.000000e+00  1.000000e+00 -0.000000e+00
    outer loop
      vertex   7.500000e+00  1.000000e+01  5.000000e+00
      vertex   0.000000e+00  1.000000e+01  1.000000e+01
      vertex   1.000000e+01  1.000000e+01  1.000000e+01
    endloop
  endfacet
  facet normal  0.000000e+00 -1.000000e+00 -6.938894e-16
    outer loop
      vertex   2.500000e+00 -3.469447e-15  5.000000e+00
      vertex   5.000000e+00  0.000000e+00  0.000000e+00
      vertex   7.500000e+00 -3.469447e-15  5.000000e+00
    endloop
  endfacet
  facet normal -1.387779e-15 -1.000000e+00  0.000000e+00
    outer loop
      vertex   0.000000e+00  0.000000e+00  0.000000e+00
      vertex   2.500000e+00 -3.469447e-15  5.000000e+00
      vertex   0.000000e+00  0.000000e+00  1.000000e+01
    endloop
  endfacet
  facet normal  0.000000e+00 -1.000000e+00  6.938894e-16
    outer loop
      vertex   0.000000e+00  0.000000e+00  1.000000e+01
      vertex   2.500000e+00 -3.469447e-15  5.000000e+00
      vertex   7.500000e+00 -3.469447e-15  5.000000e+00
    endloop
  endfacet
  facet normal  0.000000e+00 -1.000000e+00  6.938894e-16
    outer loop
      vertex   0.000000e+00  0.000000e+00  1.000000e+01
      vertex   7.500000e+00 -3.469447e-15  5.000000e+00
      vertex   1.000000e+01  0.000000e+00  1.000000e+01
    endloop
  endfacet
  facet normal  1.387779e-15 -1.000000e+00  0.000000e+00
    outer loop
      vertex   1.000000e+01  0.000000e+00  1.000000e+01
      vertex   7.500000e+00 -3.469447e-15  5.000000e+00
      vertex   1.000000e+01  0.000000e+00  0.000000e+00
    endloop
  endfacet
endsolid vcg
