solid Tunnel
   facet normal 0.000000e+00 1.000000e+00 0.000000e+00
      outer loop
         vertex 4.347709e+00 1.000000e+01 7.928228e+00
         vertex 3.928307e+00 1.000000e+01 7.802048e+00
         vertex 0.000000e+00 1.000000e+01 1.000000e+01
      endloop
   endfacet
   facet normal 0.000000e+00 1.000000e+00 0.000000e+00
      outer loop
         vertex 3.726630e+00 1.000000e+01 2.283655e+00
         vertex 4.135703e+00 1.000000e+01 2.127198e+00
         vertex 0.000000e+00 1.000000e+01 0.000000e+00
      endloop
   endfacet
   facet normal 0.000000e+00 1.000000e+00 0.000000e+00
      outer loop
         vertex 1.000000e+01 1.000000e+01 1.000000e+01
         vertex 6.071693e+00 1.000000e+01 7.802048e+00
         vertex 5.652290e+00 1.000000e+01 7.928228e+00
      endloop
   endfacet
   facet normal 0.000000e+00 1.000000e+00 0.000000e+00
      outer loop
         vertex 3.928307e+00 1.000000e+01 7.802048e+00
         vertex 3.531746e+00 1.000000e+01 7.616148e+00
         vertex 0.000000e+00 1.000000e+01 1.000000e+01
      endloop
   endfacet
   facet normal 0.000000e+00 1.000000e+00 0.000000e+00
      outer loop
         vertex 0.000000e+00 1.000000e+01 1.000000e+01
         vertex 3.531746e+00 1.000000e+01 7.616148e+00
         vertex 3.166479e+00 1.000000e+01 7.374489e+00
      endloop
   endfacet
   facet normal 0.000000e+00 1.000000e+00 0.000000e+00
      outer loop
         vertex 0.000000e+00 1.000000e+01 1.000000e+01
         vertex 3.166479e+00 1.000000e+01 7.374489e+00
         vertex 2.840289e+00 1.000000e+01 7.082222e+00
      endloop
   endfacet
   facet normal 0.000000e+00 1.000000e+00 0.000000e+00
      outer loop
         vertex 2.840289e+00 1.000000e+01 7.082222e+00
         vertex 2.560131e+00 1.000000e+01 6.745577e+00
         vertex 0.000000e+00 1.000000e+01 1.000000e+01
      endloop
   endfacet
   facet normal 0.000000e+00 1.000000e+00 0.000000e+00
      outer loop
         vertex 0.000000e+00 1.000000e+01 1.000000e+01
         vertex 2.560131e+00 1.000000e+01 6.745577e+00
         vertex 2.331974e+00 1.000000e+01 6.371727e+00
      endloop
   endfacet
   facet normal 0.000000e+00 1.000000e+00 0.000000e+00
      outer loop
         vertex 0.000000e+00 1.000000e+01 1.000000e+01
         vertex 2.331974e+00 1.000000e+01 6.371727e+00
         vertex 2.160680e+00 1.000000e+01 5.968641e+00
      endloop
   endfacet
   facet normal 0.000000e+00 1.000000e+00 0.000000e+00
      outer loop
         vertex 2.097549e+00 1.000000e+01 4.241200e+00
         vertex 2.238961e+00 1.000000e+01 3.826686e+00
         vertex 0.000000e+00 1.000000e+01 0.000000e+00
      endloop
   endfacet
   facet normal 0.000000e+00 1.000000e+00 0.000000e+00
      outer loop
         vertex 0.000000e+00 1.000000e+01 0.000000e+00
         vertex 2.238961e+00 1.000000e+01 3.826686e+00
         vertex 2.439221e+00 1.000000e+01 3.437179e+00
      endloop
   endfacet
   facet normal 0.000000e+00 1.000000e+00 0.000000e+00
      outer loop
         vertex 0.000000e+00 1.000000e+01 0.000000e+00
         vertex 2.439221e+00 1.000000e+01 3.437179e+00
         vertex 2.694058e+00 1.000000e+01 3.080981e+00
      endloop
   endfacet
   facet normal 0.000000e+00 1.000000e+00 0.000000e+00
      outer loop
         vertex 1.000000e+01 1.000000e+01 1.000000e+01
         vertex 7.439869e+00 1.000000e+01 6.745577e+00
         vertex 7.159710e+00 1.000000e+01 7.082222e+00
      endloop
   endfacet
   facet normal 0.000000e+00 1.000000e+00 -0.000000e+00
      outer loop
         vertex 5.652290e+00 1.000000e+01 7.928228e+00
         vertex 5.218986e+00 1.000000e+01 7.991997e+00
         vertex 1.000000e+01 1.000000e+01 1.000000e+01
      endloop
   endfacet
   facet normal 0.000000e+00 1.000000e+00 0.000000e+00
      outer loop
         vertex 1.000000e+01 1.000000e+01 1.000000e+01
         vertex 5.218986e+00 1.000000e+01 7.991997e+00
         vertex 5.000000e+00 1.000000e+01 8.000000e+00
      endloop
   endfacet
   facet normal 0.000000e+00 1.000000e+00 0.000000e+00
      outer loop
         vertex 1.000000e+01 1.000000e+01 1.000000e+01
         vertex 5.000000e+00 1.000000e+01 8.000000e+00
         vertex 0.000000e+00 1.000000e+01 1.000000e+01
      endloop
   endfacet
   facet normal 0.000000e+00 1.000000e+00 0.000000e+00
      outer loop
         vertex 0.000000e+00 1.000000e+01 1.000000e+01
         vertex 5.000000e+00 1.000000e+01 8.000000e+00
         vertex 4.781014e+00 1.000000e+01 7.991997e+00
      endloop
   endfacet
   facet normal 0.000000e+00 1.000000e+00 0.000000e+00
      outer loop
         vertex 0.000000e+00 1.000000e+01 1.000000e+01
         vertex 4.781014e+00 1.000000e+01 7.991997e+00
         vertex 4.347709e+00 1.000000e+01 7.928228e+00
      endloop
   endfacet
   facet normal 0.000000e+00 1.000000e+00 0.000000e+00
      outer loop
         vertex 2.160680e+00 1.000000e+01 5.968641e+00
         vertex 2.049903e+00 1.000000e+01 5.544910e+00
         vertex 0.000000e+00 1.000000e+01 1.000000e+01
      endloop
   endfacet
   facet normal 0.000000e+00 1.000000e+00 0.000000e+00
      outer loop
         vertex 0.000000e+00 1.000000e+01 1.000000e+01
         vertex 2.049903e+00 1.000000e+01 5.544910e+00
         vertex 2.002001e+00 1.000000e+01 5.109566e+00
      endloop
   endfacet
   facet normal 0.000000e+00 1.000000e+00 0.000000e+00
      outer loop
         vertex 0.000000e+00 1.000000e+01 1.000000e+01
         vertex 2.002001e+00 1.000000e+01 5.109566e+00
         vertex 0.000000e+00 1.000000e+01 0.000000e+00
      endloop
   endfacet
   facet normal 0.000000e+00 1.000000e+00 0.000000e+00
      outer loop
         vertex 0.000000e+00 1.000000e+01 0.000000e+00
         vertex 2.002001e+00 1.000000e+01 5.109566e+00
         vertex 2.017997e+00 1.000000e+01 4.671886e+00
      endloop
   endfacet
   facet normal 0.000000e+00 1.000000e+00 0.000000e+00
      outer loop
         vertex 0.000000e+00 1.000000e+01 0.000000e+00
         vertex 2.017997e+00 1.000000e+01 4.671886e+00
         vertex 2.097549e+00 1.000000e+01 4.241200e+00
      endloop
   endfacet
   facet normal 0.000000e+00 1.000000e+00 0.000000e+00
      outer loop
         vertex 2.694058e+00 1.000000e+01 3.080981e+00
         vertex 2.998044e+00 1.000000e+01 2.765683e+00
         vertex 0.000000e+00 1.000000e+01 0.000000e+00
      endloop
   endfacet
   facet normal 0.000000e+00 1.000000e+00 0.000000e+00
      outer loop
         vertex 0.000000e+00 1.000000e+01 0.000000e+00
         vertex 2.998044e+00 1.000000e+01 2.765683e+00
         vertex 3.344697e+00 1.000000e+01 2.498006e+00
      endloop
   endfacet
   facet normal 0.000000e+00 1.000000e+00 0.000000e+00
      outer loop
         vertex 0.000000e+00 1.000000e+01 0.000000e+00
         vertex 3.344697e+00 1.000000e+01 2.498006e+00
         vertex 3.726630e+00 1.000000e+01 2.283655e+00
      endloop
   endfacet
   facet normal 0.000000e+00 1.000000e+00 0.000000e+00
      outer loop
         vertex 5.436803e+00 1.000000e+01 2.031970e+00
         vertex 1.000000e+01 1.000000e+01 0.000000e+00
         vertex 5.000000e+00 1.000000e+01 2.000000e+00
      endloop
   endfacet
   facet normal 0.000000e+00 1.000000e+00 0.000000e+00
      outer loop
         vertex 5.000000e+00 1.000000e+01 2.000000e+00
         vertex 1.000000e+01 1.000000e+01 0.000000e+00
         vertex 0.000000e+00 1.000000e+01 0.000000e+00
      endloop
   endfacet
   facet normal 0.000000e+00 1.000000e+00 0.000000e+00
      outer loop
         vertex 5.000000e+00 1.000000e+01 2.000000e+00
         vertex 0.000000e+00 1.000000e+01 0.000000e+00
         vertex 4.563196e+00 1.000000e+01 2.031970e+00
      endloop
   endfacet
   facet normal 0.000000e+00 1.000000e+00 0.000000e+00
      outer loop
         vertex 4.563196e+00 1.000000e+01 2.031970e+00
         vertex 0.000000e+00 1.000000e+01 0.000000e+00
         vertex 4.135703e+00 1.000000e+01 2.127198e+00
      endloop
   endfacet
   facet normal -0.000000e+00 1.000000e+00 0.000000e+00
      outer loop
         vertex 5.436803e+00 1.000000e+01 2.031970e+00
         vertex 5.864297e+00 1.000000e+01 2.127198e+00
         vertex 1.000000e+01 1.000000e+01 0.000000e+00
      endloop
   endfacet
   facet normal 0.000000e+00 1.000000e+00 0.000000e+00
      outer loop
         vertex 1.000000e+01 1.000000e+01 0.000000e+00
         vertex 5.864297e+00 1.000000e+01 2.127198e+00
         vertex 6.273370e+00 1.000000e+01 2.283655e+00
      endloop
   endfacet
   facet normal 0.000000e+00 1.000000e+00 0.000000e+00
      outer loop
         vertex 1.000000e+01 1.000000e+01 0.000000e+00
         vertex 6.273370e+00 1.000000e+01 2.283655e+00
         vertex 6.655303e+00 1.000000e+01 2.498006e+00
      endloop
   endfacet
   facet normal 0.000000e+00 1.000000e+00 -0.000000e+00
      outer loop
         vertex 1.000000e+01 1.000000e+01 0.000000e+00
         vertex 7.982003e+00 1.000000e+01 4.671886e+00
         vertex 1.000000e+01 1.000000e+01 1.000000e+01
      endloop
   endfacet
   facet normal 0.000000e+00 1.000000e+00 0.000000e+00
      outer loop
         vertex 1.000000e+01 1.000000e+01 1.000000e+01
         vertex 7.982003e+00 1.000000e+01 4.671886e+00
         vertex 7.997999e+00 1.000000e+01 5.109566e+00
      endloop
   endfacet
   facet normal 0.000000e+00 1.000000e+00 0.000000e+00
      outer loop
         vertex 1.000000e+01 1.000000e+01 1.000000e+01
         vertex 7.997999e+00 1.000000e+01 5.109566e+00
         vertex 7.950097e+00 1.000000e+01 5.544910e+00
      endloop
   endfacet
   facet normal 0.000000e+00 1.000000e+00 -0.000000e+00
      outer loop
         vertex 7.950097e+00 1.000000e+01 5.544910e+00
         vertex 7.839319e+00 1.000000e+01 5.968641e+00
         vertex 1.000000e+01 1.000000e+01 1.000000e+01
      endloop
   endfacet
   facet normal 0.000000e+00 1.000000e+00 0.000000e+00
      outer loop
         vertex 1.000000e+01 1.000000e+01 1.000000e+01
         vertex 7.839319e+00 1.000000e+01 5.968641e+00
         vertex 7.668026e+00 1.000000e+01 6.371727e+00
      endloop
   endfacet
   facet normal 0.000000e+00 1.000000e+00 0.000000e+00
      outer loop
         vertex 1.000000e+01 1.000000e+01 1.000000e+01
         vertex 7.668026e+00 1.000000e+01 6.371727e+00
         vertex 7.439869e+00 1.000000e+01 6.745577e+00
      endloop
   endfacet
   facet normal 0.000000e+00 1.000000e+00 -0.000000e+00
      outer loop
         vertex 7.159710e+00 1.000000e+01 7.082222e+00
         vertex 6.833521e+00 1.000000e+01 7.374489e+00
         vertex 1.000000e+01 1.000000e+01 1.000000e+01
      endloop
   endfacet
   facet normal 0.000000e+00 1.000000e+00 0.000000e+00
      outer loop
         vertex 1.000000e+01 1.000000e+01 1.000000e+01
         vertex 6.833521e+00 1.000000e+01 7.374489e+00
         vertex 6.468253e+00 1.000000e+01 7.616148e+00
      endloop
   endfacet
   facet normal 0.000000e+00 1.000000e+00 0.000000e+00
      outer loop
         vertex 1.000000e+01 1.000000e+01 1.000000e+01
         vertex 6.468253e+00 1.000000e+01 7.616148e+00
         vertex 6.071693e+00 1.000000e+01 7.802048e+00
      endloop
   endfacet
   facet normal -0.000000e+00 1.000000e+00 0.000000e+00
      outer loop
         vertex 6.655303e+00 1.000000e+01 2.498006e+00
         vertex 7.001956e+00 1.000000e+01 2.765683e+00
         vertex 1.000000e+01 1.000000e+01 0.000000e+00
      endloop
   endfacet
   facet normal 0.000000e+00 1.000000e+00 0.000000e+00
      outer loop
         vertex 1.000000e+01 1.000000e+01 0.000000e+00
         vertex 7.001956e+00 1.000000e+01 2.765683e+00
         vertex 7.305941e+00 1.000000e+01 3.080981e+00
      endloop
   endfacet
   facet normal 0.000000e+00 1.000000e+00 0.000000e+00
      outer loop
         vertex 1.000000e+01 1.000000e+01 0.000000e+00
         vertex 7.305941e+00 1.000000e+01 3.080981e+00
         vertex 7.560779e+00 1.000000e+01 3.437179e+00
      endloop
   endfacet
   facet normal -0.000000e+00 1.000000e+00 0.000000e+00
      outer loop
         vertex 7.560779e+00 1.000000e+01 3.437179e+00
         vertex 7.761038e+00 1.000000e+01 3.826686e+00
         vertex 1.000000e+01 1.000000e+01 0.000000e+00
      endloop
   endfacet
   facet normal 0.000000e+00 1.000000e+00 0.000000e+00
      outer loop
         vertex 1.000000e+01 1.000000e+01 0.000000e+00
         vertex 7.761038e+00 1.000000e+01 3.826686e+00
         vertex 7.902451e+00 1.000000e+01 4.241200e+00
      endloop
   endfacet
   facet normal 0.000000e+00 1.000000e+00 0.000000e+00
      outer loop
         vertex 1.000000e+01 1.000000e+01 0.000000e+00
         vertex 7.902451e+00 1.000000e+01 4.241200e+00
         vertex 7.982003e+00 1.000000e+01 4.671886e+00
      endloop
   endfacet
   facet normal -0.000000e+00 -1.000000e+00 0.000000e+00
      outer loop
         vertex 4.135703e+00 0.000000e+00 2.127198e+00
         vertex 3.726630e+00 0.000000e+00 2.283655e+00
         vertex 0.000000e+00 0.000000e+00 0.000000e+00
      endloop
   endfacet
   facet normal 0.000000e+00 -1.000000e+00 0.000000e+00
      outer loop
         vertex 0.000000e+00 0.000000e+00 0.000000e+00
         vertex 3.726630e+00 0.000000e+00 2.283655e+00
         vertex 3.344697e+00 0.000000e+00 2.498006e+00
      endloop
   endfacet
   facet normal 0.000000e+00 -1.000000e+00 0.000000e+00
      outer loop
         vertex 0.000000e+00 0.000000e+00 0.000000e+00
         vertex 3.344697e+00 0.000000e+00 2.498006e+00
         vertex 2.998044e+00 0.000000e+00 2.765683e+00
      endloop
   endfacet
   facet normal 0.000000e+00 -1.000000e+00 0.000000e+00
      outer loop
         vertex 5.652290e+00 0.000000e+00 7.928228e+00
         vertex 6.071693e+00 0.000000e+00 7.802048e+00
         vertex 1.000000e+01 0.000000e+00 1.000000e+01
      endloop
   endfacet
   facet normal -0.000000e+00 -1.000000e+00 0.000000e+00
      outer loop
         vertex 2.998044e+00 0.000000e+00 2.765683e+00
         vertex 2.694058e+00 0.000000e+00 3.080981e+00
         vertex 0.000000e+00 0.000000e+00 0.000000e+00
      endloop
   endfacet
   facet normal 0.000000e+00 -1.000000e+00 0.000000e+00
      outer loop
         vertex 0.000000e+00 0.000000e+00 0.000000e+00
         vertex 2.694058e+00 0.000000e+00 3.080981e+00
         vertex 2.439221e+00 0.000000e+00 3.437179e+00
      endloop
   endfacet
   facet normal 0.000000e+00 -1.000000e+00 0.000000e+00
      outer loop
         vertex 0.000000e+00 0.000000e+00 0.000000e+00
         vertex 2.439221e+00 0.000000e+00 3.437179e+00
         vertex 2.238961e+00 0.000000e+00 3.826686e+00
      endloop
   endfacet
   facet normal -0.000000e+00 -1.000000e+00 0.000000e+00
      outer loop
         vertex 2.238961e+00 0.000000e+00 3.826686e+00
         vertex 2.097549e+00 0.000000e+00 4.241200e+00
         vertex 0.000000e+00 0.000000e+00 0.000000e+00
      endloop
   endfacet
   facet normal 0.000000e+00 -1.000000e+00 0.000000e+00
      outer loop
         vertex 0.000000e+00 0.000000e+00 0.000000e+00
         vertex 2.097549e+00 0.000000e+00 4.241200e+00
         vertex 2.017997e+00 0.000000e+00 4.671886e+00
      endloop
   endfacet
   facet normal 0.000000e+00 -1.000000e+00 0.000000e+00
      outer loop
         vertex 0.000000e+00 0.000000e+00 0.000000e+00
         vertex 2.017997e+00 0.000000e+00 4.671886e+00
         vertex 0.000000e+00 0.000000e+00 1.000000e+01
      endloop
   endfacet
   facet normal 0.000000e+00 -1.000000e+00 0.000000e+00
      outer loop
         vertex 2.017997e+00 0.000000e+00 4.671886e+00
         vertex 2.002001e+00 0.000000e+00 5.109566e+00
         vertex 0.000000e+00 0.000000e+00 1.000000e+01
      endloop
   endfacet
   facet normal 0.000000e+00 -1.000000e+00 0.000000e+00
      outer loop
         vertex 0.000000e+00 0.000000e+00 1.000000e+01
         vertex 2.002001e+00 0.000000e+00 5.109566e+00
         vertex 2.049903e+00 0.000000e+00 5.544910e+00
      endloop
   endfacet
   facet normal 0.000000e+00 -1.000000e+00 0.000000e+00
      outer loop
         vertex 0.000000e+00 0.000000e+00 1.000000e+01
         vertex 2.049903e+00 0.000000e+00 5.544910e+00
         vertex 2.160680e+00 0.000000e+00 5.968641e+00
      endloop
   endfacet
   facet normal 0.000000e+00 -1.000000e+00 0.000000e+00
      outer loop
         vertex 2.160680e+00 0.000000e+00 5.968641e+00
         vertex 2.331974e+00 0.000000e+00 6.371727e+00
         vertex 0.000000e+00 0.000000e+00 1.000000e+01
      endloop
   endfacet
   facet normal 0.000000e+00 -1.000000e+00 0.000000e+00
      outer loop
         vertex 0.000000e+00 0.000000e+00 1.000000e+01
         vertex 2.331974e+00 0.000000e+00 6.371727e+00
         vertex 2.560131e+00 0.000000e+00 6.745577e+00
      endloop
   endfacet
   facet normal 0.000000e+00 -1.000000e+00 0.000000e+00
      outer loop
         vertex 0.000000e+00 0.000000e+00 1.000000e+01
         vertex 2.560131e+00 0.000000e+00 6.745577e+00
         vertex 2.840289e+00 0.000000e+00 7.082222e+00
      endloop
   endfacet
   facet normal 0.000000e+00 -1.000000e+00 0.000000e+00
      outer loop
         vertex 2.840289e+00 0.000000e+00 7.082222e+00
         vertex 3.166479e+00 0.000000e+00 7.374489e+00
         vertex 0.000000e+00 0.000000e+00 1.000000e+01
      endloop
   endfacet
   facet normal 0.000000e+00 -1.000000e+00 0.000000e+00
      outer loop
         vertex 0.000000e+00 0.000000e+00 1.000000e+01
         vertex 3.166479e+00 0.000000e+00 7.374489e+00
         vertex 3.531746e+00 0.000000e+00 7.616148e+00
      endloop
   endfacet
   facet normal 0.000000e+00 -1.000000e+00 0.000000e+00
      outer loop
         vertex 0.000000e+00 0.000000e+00 1.000000e+01
         vertex 3.531746e+00 0.000000e+00 7.616148e+00
         vertex 3.928307e+00 0.000000e+00 7.802048e+00
      endloop
   endfacet
   facet normal 0.000000e+00 -1.000000e+00 0.000000e+00
      outer loop
         vertex 5.652290e+00 0.000000e+00 7.928228e+00
         vertex 1.000000e+01 0.000000e+00 1.000000e+01
         vertex 5.218986e+00 0.000000e+00 7.991997e+00
      endloop
   endfacet
   facet normal 0.000000e+00 -1.000000e+00 0.000000e+00
      outer loop
         vertex 6.071693e+00 0.000000e+00 7.802048e+00
         vertex 6.468253e+00 0.000000e+00 7.616148e+00
         vertex 1.000000e+01 0.000000e+00 1.000000e+01
      endloop
   endfacet
   facet normal 0.000000e+00 -1.000000e+00 0.000000e+00
      outer loop
         vertex 1.000000e+01 0.000000e+00 1.000000e+01
         vertex 6.468253e+00 0.000000e+00 7.616148e+00
         vertex 6.833521e+00 0.000000e+00 7.374489e+00
      endloop
   endfacet
   facet normal 0.000000e+00 -1.000000e+00 0.000000e+00
      outer loop
         vertex 1.000000e+01 0.000000e+00 1.000000e+01
         vertex 6.833521e+00 0.000000e+00 7.374489e+00
         vertex 7.159710e+00 0.000000e+00 7.082222e+00
      endloop
   endfacet
   facet normal 0.000000e+00 -1.000000e+00 0.000000e+00
      outer loop
         vertex 1.000000e+01 0.000000e+00 0.000000e+00
         vertex 7.902451e+00 0.000000e+00 4.241200e+00
         vertex 7.761038e+00 0.000000e+00 3.826686e+00
      endloop
   endfacet
   facet normal 0.000000e+00 -1.000000e+00 -0.000000e+00
      outer loop
         vertex 7.761038e+00 0.000000e+00 3.826686e+00
         vertex 7.560779e+00 0.000000e+00 3.437179e+00
         vertex 1.000000e+01 0.000000e+00 0.000000e+00
      endloop
   endfacet
   facet normal 0.000000e+00 -1.000000e+00 0.000000e+00
      outer loop
         vertex 1.000000e+01 0.000000e+00 0.000000e+00
         vertex 7.560779e+00 0.000000e+00 3.437179e+00
         vertex 7.305941e+00 0.000000e+00 3.080981e+00
      endloop
   endfacet
   facet normal 0.000000e+00 -1.000000e+00 0.000000e+00
      outer loop
         vertex 1.000000e+01 0.000000e+00 0.000000e+00
         vertex 7.305941e+00 0.000000e+00 3.080981e+00
         vertex 7.001956e+00 0.000000e+00 2.765683e+00
      endloop
   endfacet
   facet normal 0.000000e+00 -1.000000e+00 -0.000000e+00
      outer loop
         vertex 7.001956e+00 0.000000e+00 2.765683e+00
         vertex 6.655303e+00 0.000000e+00 2.498006e+00
         vertex 1.000000e+01 0.000000e+00 0.000000e+00
      endloop
   endfacet
   facet normal 0.000000e+00 -1.000000e+00 0.000000e+00
      outer loop
         vertex 1.000000e+01 0.000000e+00 0.000000e+00
         vertex 6.655303e+00 0.000000e+00 2.498006e+00
         vertex 6.273370e+00 0.000000e+00 2.283655e+00
      endloop
   endfacet
   facet normal 0.000000e+00 -1.000000e+00 0.000000e+00
      outer loop
         vertex 1.000000e+01 0.000000e+00 0.000000e+00
         vertex 6.273370e+00 0.000000e+00 2.283655e+00
         vertex 5.864297e+00 0.000000e+00 2.127198e+00
      endloop
   endfacet
   facet normal 0.000000e+00 -1.000000e+00 0.000000e+00
      outer loop
         vertex 7.159710e+00 0.000000e+00 7.082222e+00
         vertex 7.439869e+00 0.000000e+00 6.745577e+00
         vertex 1.000000e+01 0.000000e+00 1.000000e+01
      endloop
   endfacet
   facet normal 0.000000e+00 -1.000000e+00 0.000000e+00
      outer loop
         vertex 1.000000e+01 0.000000e+00 1.000000e+01
         vertex 7.439869e+00 0.000000e+00 6.745577e+00
         vertex 7.668026e+00 0.000000e+00 6.371727e+00
      endloop
   endfacet
   facet normal 0.000000e+00 -1.000000e+00 0.000000e+00
      outer loop
         vertex 1.000000e+01 0.000000e+00 1.000000e+01
         vertex 7.668026e+00 0.000000e+00 6.371727e+00
         vertex 7.839319e+00 0.000000e+00 5.968641e+00
      endloop
   endfacet
   facet normal 0.000000e+00 -1.000000e+00 0.000000e+00
      outer loop
         vertex 7.839319e+00 0.000000e+00 5.968641e+00
         vertex 7.950097e+00 0.000000e+00 5.544910e+00
         vertex 1.000000e+01 0.000000e+00 1.000000e+01
      endloop
   endfacet
   facet normal 0.000000e+00 -1.000000e+00 0.000000e+00
      outer loop
         vertex 1.000000e+01 0.000000e+00 1.000000e+01
         vertex 7.950097e+00 0.000000e+00 5.544910e+00
         vertex 7.997999e+00 0.000000e+00 5.109566e+00
      endloop
   endfacet
   facet normal 0.000000e+00 -1.000000e+00 -0.000000e+00
      outer loop
         vertex 1.000000e+01 0.000000e+00 1.000000e+01
         vertex 7.997999e+00 0.000000e+00 5.109566e+00
         vertex 1.000000e+01 0.000000e+00 0.000000e+00
      endloop
   endfacet
   facet normal 0.000000e+00 -1.000000e+00 0.000000e+00
      outer loop
         vertex 1.000000e+01 0.000000e+00 0.000000e+00
         vertex 7.997999e+00 0.000000e+00 5.109566e+00
         vertex 7.982003e+00 0.000000e+00 4.671886e+00
      endloop
   endfacet
   facet normal 0.000000e+00 -1.000000e+00 0.000000e+00
      outer loop
         vertex 1.000000e+01 0.000000e+00 0.000000e+00
         vertex 7.982003e+00 0.000000e+00 4.671886e+00
         vertex 7.902451e+00 0.000000e+00 4.241200e+00
      endloop
   endfacet
   facet normal 0.000000e+00 -1.000000e+00 -0.000000e+00
      outer loop
         vertex 5.864297e+00 0.000000e+00 2.127198e+00
         vertex 5.436803e+00 0.000000e+00 2.031970e+00
         vertex 1.000000e+01 0.000000e+00 0.000000e+00
      endloop
   endfacet
   facet normal 0.000000e+00 -1.000000e+00 0.000000e+00
      outer loop
         vertex 1.000000e+01 0.000000e+00 0.000000e+00
         vertex 5.436803e+00 0.000000e+00 2.031970e+00
         vertex 5.000000e+00 0.000000e+00 2.000000e+00
      endloop
   endfacet
   facet normal 0.000000e+00 -1.000000e+00 0.000000e+00
      outer loop
         vertex 1.000000e+01 0.000000e+00 0.000000e+00
         vertex 5.000000e+00 0.000000e+00 2.000000e+00
         vertex 0.000000e+00 0.000000e+00 0.000000e+00
      endloop
   endfacet
   facet normal 0.000000e+00 -1.000000e+00 0.000000e+00
      outer loop
         vertex 0.000000e+00 0.000000e+00 0.000000e+00
         vertex 5.000000e+00 0.000000e+00 2.000000e+00
         vertex 4.563196e+00 0.000000e+00 2.031970e+00
      endloop
   endfacet
   facet normal 0.000000e+00 -1.000000e+00 0.000000e+00
      outer loop
         vertex 0.000000e+00 0.000000e+00 0.000000e+00
         vertex 4.563196e+00 0.000000e+00 2.031970e+00
         vertex 4.135703e+00 0.000000e+00 2.127198e+00
      endloop
   endfacet
   facet normal 0.000000e+00 -1.000000e+00 0.000000e+00
      outer loop
         vertex 3.928307e+00 0.000000e+00 7.802048e+00
         vertex 4.347709e+00 0.000000e+00 7.928228e+00
         vertex 0.000000e+00 0.000000e+00 1.000000e+01
      endloop
   endfacet
   facet normal 0.000000e+00 -1.000000e+00 0.000000e+00
      outer loop
         vertex 0.000000e+00 0.000000e+00 1.000000e+01
         vertex 4.347709e+00 0.000000e+00 7.928228e+00
         vertex 4.781014e+00 0.000000e+00 7.991997e+00
      endloop
   endfacet
   facet normal 0.000000e+00 -1.000000e+00 0.000000e+00
      outer loop
         vertex 0.000000e+00 0.000000e+00 1.000000e+01
         vertex 4.781014e+00 0.000000e+00 7.991997e+00
         vertex 1.000000e+01 0.000000e+00 1.000000e+01
      endloop
   endfacet
   facet normal 0.000000e+00 -1.000000e+00 0.000000e+00
      outer loop
         vertex 1.000000e+01 0.000000e+00 1.000000e+01
         vertex 4.781014e+00 0.000000e+00 7.991997e+00
         vertex 5.000000e+00 0.000000e+00 8.000000e+00
      endloop
   endfacet
   facet normal 0.000000e+00 -1.000000e+00 0.000000e+00
      outer loop
         vertex 1.000000e+01 0.000000e+00 1.000000e+01
         vertex 5.000000e+00 0.000000e+00 8.000000e+00
         vertex 5.218986e+00 0.000000e+00 7.991997e+00
      endloop
   endfacet
   facet normal 1.000000e+00 0.000000e+00 -0.000000e+00
      outer loop
         vertex 1.000000e+01 1.000000e+01 0.000000e+00
         vertex 1.000000e+01 1.000000e+01 1.000000e+01
         vertex 1.000000e+01 0.000000e+00 0.000000e+00
      endloop
   endfacet
   facet normal 1.000000e+00 0.000000e+00 0.000000e+00
      outer loop
         vertex 1.000000e+01 0.000000e+00 0.000000e+00
         vertex 1.000000e+01 1.000000e+01 1.000000e+01
         vertex 1.000000e+01 0.000000e+00 1.000000e+01
      endloop
   endfacet
   facet normal 0.000000e+00 0.000000e+00 -1.000000e+00
      outer loop
         vertex 0.000000e+00 1.000000e+01 0.000000e+00
         vertex 1.000000e+01 1.000000e+01 0.000000e+00
         vertex 0.000000e+00 0.000000e+00 0.000000e+00
      endloop
   endfacet
   facet normal 0.000000e+00 0.000000e+00 -1.000000e+00
      outer loop
         vertex 0.000000e+00 0.000000e+00 0.000000e+00
         vertex 1.000000e+01 1.000000e+01 0.000000e+00
         vertex 1.000000e+01 0.000000e+00 0.000000e+00
      endloop
   endfacet
   facet normal -1.000000e+00 -0.000000e+00 -0.000000e+00
      outer loop
         vertex 0.000000e+00 1.000000e+01 1.000000e+01
         vertex 0.000000e+00 1.000000e+01 0.000000e+00
         vertex 0.000000e+00 0.000000e+00 1.000000e+01
      endloop
   endfacet
   facet normal -1.000000e+00 0.000000e+00 0.000000e+00
      outer loop
         vertex 0.000000e+00 0.000000e+00 1.000000e+01
         vertex 0.000000e+00 1.000000e+01 0.000000e+00
         vertex 0.000000e+00 0.000000e+00 0.000000e+00
      endloop
   endfacet
   facet normal 0.000000e+00 0.000000e+00 1.000000e+00
      outer loop
         vertex 1.000000e+01 1.000000e+01 1.000000e+01
         vertex 0.000000e+00 1.000000e+01 1.000000e+01
         vertex 1.000000e+01 0.000000e+00 1.000000e+01
      endloop
   endfacet
   facet normal 0.000000e+00 0.000000e+00 1.000000e+00
      outer loop
         vertex 1.000000e+01 0.000000e+00 1.000000e+01
         vertex 0.000000e+00 1.000000e+01 1.000000e+01
         vertex 0.000000e+00 0.000000e+00 1.000000e+01
      endloop
   endfacet
   facet normal -7.299550e-02 0.000000e+00 9.973323e-01
      outer loop
         vertex 5.000000e+00 1.000000e+01 2.000000e+00
         vertex 5.000000e+00 0.000000e+00 2.000000e+00
         vertex 5.436803e+00 1.000000e+01 2.031970e+00
      endloop
   endfacet
   facet normal -7.299550e-02 0.000000e+00 9.973323e-01
      outer loop
         vertex 5.436803e+00 1.000000e+01 2.031970e+00
         vertex 5.000000e+00 0.000000e+00 2.000000e+00
         vertex 5.436803e+00 0.000000e+00 2.031970e+00
      endloop
   endfacet
   facet normal -2.174299e-01 0.000000e+00 9.760759e-01
      outer loop
         vertex 5.436803e+00 1.000000e+01 2.031970e+00
         vertex 5.436803e+00 0.000000e+00 2.031970e+00
         vertex 5.864297e+00 1.000000e+01 2.127198e+00
      endloop
   endfacet
   facet normal -2.174299e-01 0.000000e+00 9.760759e-01
      outer loop
         vertex 5.864297e+00 1.000000e+01 2.127198e+00
         vertex 5.436803e+00 0.000000e+00 2.031970e+00
         vertex 5.864297e+00 0.000000e+00 2.127198e+00
      endloop
   endfacet
   facet normal -3.572309e-01 0.000000e+00 9.340161e-01
      outer loop
         vertex 5.864297e+00 1.000000e+01 2.127198e+00
         vertex 5.864297e+00 0.000000e+00 2.127198e+00
         vertex 6.273370e+00 1.000000e+01 2.283655e+00
      endloop
   endfacet
   facet normal -3.572309e-01 0.000000e+00 9.340161e-01
      outer loop
         vertex 6.273370e+00 1.000000e+01 2.283655e+00
         vertex 5.864297e+00 0.000000e+00 2.127198e+00
         vertex 6.273370e+00 0.000000e+00 2.283655e+00
      endloop
   endfacet
   facet normal -4.894181e-01 0.000000e+00 8.720493e-01
      outer loop
         vertex 6.273370e+00 1.000000e+01 2.283655e+00
         vertex 6.273370e+00 0.000000e+00 2.283655e+00
         vertex 6.655303e+00 1.000000e+01 2.498006e+00
      endloop
   endfacet
   facet normal -4.894181e-01 0.000000e+00 8.720493e-01
      outer loop
         vertex 6.655303e+00 1.000000e+01 2.498006e+00
         vertex 6.273370e+00 0.000000e+00 2.283655e+00
         vertex 6.655303e+00 0.000000e+00 2.498006e+00
      endloop
   endfacet
   facet normal -6.111736e-01 0.000000e+00 7.914966e-01
      outer loop
         vertex 6.655303e+00 1.000000e+01 2.498006e+00
         vertex 6.655303e+00 0.000000e+00 2.498006e+00
         vertex 7.001956e+00 1.000000e+01 2.765683e+00
      endloop
   endfacet
   facet normal -6.111736e-01 0.000000e+00 7.914966e-01
      outer loop
         vertex 7.001956e+00 1.000000e+01 2.765683e+00
         vertex 6.655303e+00 0.000000e+00 2.498006e+00
         vertex 7.001956e+00 0.000000e+00 2.765683e+00
      endloop
   endfacet
   facet normal -7.199035e-01 0.000000e+00 6.940741e-01
      outer loop
         vertex 7.001956e+00 1.000000e+01 2.765683e+00
         vertex 7.001956e+00 0.000000e+00 2.765683e+00
         vertex 7.305941e+00 1.000000e+01 3.080981e+00
      endloop
   endfacet
   facet normal -7.199035e-01 0.000000e+00 6.940741e-01
      outer loop
         vertex 7.305941e+00 1.000000e+01 3.080981e+00
         vertex 7.001956e+00 0.000000e+00 2.765683e+00
         vertex 7.305941e+00 0.000000e+00 3.080981e+00
      endloop
   endfacet
   facet normal -8.132898e-01 0.000000e+00 5.818588e-01
      outer loop
         vertex 7.305941e+00 1.000000e+01 3.080981e+00
         vertex 7.305941e+00 0.000000e+00 3.080981e+00
         vertex 7.560779e+00 1.000000e+01 3.437179e+00
      endloop
   endfacet
   facet normal -8.132898e-01 0.000000e+00 5.818588e-01
      outer loop
         vertex 7.560779e+00 1.000000e+01 3.437179e+00
         vertex 7.305941e+00 0.000000e+00 3.080981e+00
         vertex 7.560779e+00 0.000000e+00 3.437179e+00
      endloop
   endfacet
   facet normal -8.893421e-01 0.000000e+00 4.572423e-01
      outer loop
         vertex 7.560779e+00 1.000000e+01 3.437179e+00
         vertex 7.560779e+00 0.000000e+00 3.437179e+00
         vertex 7.761038e+00 1.000000e+01 3.826686e+00
      endloop
   endfacet
   facet normal -8.893421e-01 0.000000e+00 4.572423e-01
      outer loop
         vertex 7.761038e+00 1.000000e+01 3.826686e+00
         vertex 7.560779e+00 0.000000e+00 3.437179e+00
         vertex 7.761038e+00 0.000000e+00 3.826686e+00
      endloop
   endfacet
   facet normal -9.464397e-01 0.000000e+00 3.228807e-01
      outer loop
         vertex 7.761038e+00 1.000000e+01 3.826686e+00
         vertex 7.761038e+00 0.000000e+00 3.826686e+00
         vertex 7.902451e+00 1.000000e+01 4.241200e+00
      endloop
   endfacet
   facet normal -9.464397e-01 0.000000e+00 3.228807e-01
      outer loop
         vertex 7.902451e+00 1.000000e+01 4.241200e+00
         vertex 7.761038e+00 0.000000e+00 3.826686e+00
         vertex 7.902451e+00 0.000000e+00 4.241200e+00
      endloop
   endfacet
   facet normal -9.833657e-01 0.000000e+00 1.816366e-01
      outer loop
         vertex 7.902451e+00 1.000000e+01 4.241200e+00
         vertex 7.902451e+00 0.000000e+00 4.241200e+00
         vertex 7.982003e+00 1.000000e+01 4.671886e+00
      endloop
   endfacet
   facet normal -9.833657e-01 0.000000e+00 1.816366e-01
      outer loop
         vertex 7.982003e+00 1.000000e+01 4.671886e+00
         vertex 7.902451e+00 0.000000e+00 4.241200e+00
         vertex 7.982003e+00 0.000000e+00 4.671886e+00
      endloop
   endfacet
   facet normal -9.993328e-01 0.000000e+00 3.652220e-02
      outer loop
         vertex 7.982003e+00 1.000000e+01 4.671886e+00
         vertex 7.982003e+00 0.000000e+00 4.671886e+00
         vertex 7.997999e+00 1.000000e+01 5.109566e+00
      endloop
   endfacet
   facet normal -9.993328e-01 0.000000e+00 3.652220e-02
      outer loop
         vertex 7.997999e+00 1.000000e+01 5.109566e+00
         vertex 7.982003e+00 0.000000e+00 4.671886e+00
         vertex 7.997999e+00 0.000000e+00 5.109566e+00
      endloop
   endfacet
   facet normal -9.940009e-01 -0.000000e+00 -1.093715e-01
      outer loop
         vertex 7.997999e+00 1.000000e+01 5.109566e+00
         vertex 7.997999e+00 0.000000e+00 5.109566e+00
         vertex 7.950097e+00 1.000000e+01 5.544910e+00
      endloop
   endfacet
   facet normal -9.940009e-01 -0.000000e+00 -1.093715e-01
      outer loop
         vertex 7.950097e+00 1.000000e+01 5.544910e+00
         vertex 7.997999e+00 0.000000e+00 5.109566e+00
         vertex 7.950097e+00 0.000000e+00 5.544910e+00
      endloop
   endfacet
   facet normal -9.674838e-01 -0.000000e+00 -2.529331e-01
      outer loop
         vertex 7.950097e+00 1.000000e+01 5.544910e+00
         vertex 7.950097e+00 0.000000e+00 5.544910e+00
         vertex 7.839319e+00 1.000000e+01 5.968641e+00
      endloop
   endfacet
   facet normal -9.674838e-01 -0.000000e+00 -2.529331e-01
      outer loop
         vertex 7.839319e+00 1.000000e+01 5.968641e+00
         vertex 7.950097e+00 0.000000e+00 5.544910e+00
         vertex 7.839319e+00 0.000000e+00 5.968641e+00
      endloop
   endfacet
   facet normal -9.203461e-01 -0.000000e+00 -3.911050e-01
      outer loop
         vertex 7.839319e+00 1.000000e+01 5.968641e+00
         vertex 7.839319e+00 0.000000e+00 5.968641e+00
         vertex 7.668026e+00 1.000000e+01 6.371727e+00
      endloop
   endfacet
   facet normal -9.203461e-01 -0.000000e+00 -3.911050e-01
      outer loop
         vertex 7.668026e+00 1.000000e+01 6.371727e+00
         vertex 7.839319e+00 0.000000e+00 5.968641e+00
         vertex 7.668026e+00 0.000000e+00 6.371727e+00
      endloop
   endfacet
   facet normal -8.535933e-01 -0.000000e+00 -5.209400e-01
      outer loop
         vertex 7.668026e+00 1.000000e+01 6.371727e+00
         vertex 7.668026e+00 0.000000e+00 6.371727e+00
         vertex 7.439869e+00 1.000000e+01 6.745577e+00
      endloop
   endfacet
   facet normal -8.535933e-01 -0.000000e+00 -5.209400e-01
      outer loop
         vertex 7.439869e+00 1.000000e+01 6.745577e+00
         vertex 7.668026e+00 0.000000e+00 6.371727e+00
         vertex 7.439869e+00 0.000000e+00 6.745577e+00
      endloop
   endfacet
   facet normal -7.686471e-01 -0.000000e+00 -6.396730e-01
      outer loop
         vertex 7.439869e+00 1.000000e+01 6.745577e+00
         vertex 7.439869e+00 0.000000e+00 6.745577e+00
         vertex 7.159710e+00 1.000000e+01 7.082222e+00
      endloop
   endfacet
   facet normal -7.686471e-01 -0.000000e+00 -6.396730e-01
      outer loop
         vertex 7.159710e+00 1.000000e+01 7.082222e+00
         vertex 7.439869e+00 0.000000e+00 6.745577e+00
         vertex 7.159710e+00 0.000000e+00 7.082222e+00
      endloop
   endfacet
   facet normal -6.673188e-01 -0.000000e+00 -7.447722e-01
      outer loop
         vertex 7.159710e+00 1.000000e+01 7.082222e+00
         vertex 7.159710e+00 0.000000e+00 7.082222e+00
         vertex 6.833521e+00 1.000000e+01 7.374489e+00
      endloop
   endfacet
   facet normal -6.673188e-01 -0.000000e+00 -7.447722e-01
      outer loop
         vertex 6.833521e+00 1.000000e+01 7.374489e+00
         vertex 7.159710e+00 0.000000e+00 7.082222e+00
         vertex 6.833521e+00 0.000000e+00 7.374489e+00
      endloop
   endfacet
   facet normal -5.517675e-01 -0.000000e+00 -8.339979e-01
      outer loop
         vertex 6.833521e+00 1.000000e+01 7.374489e+00
         vertex 6.833521e+00 0.000000e+00 7.374489e+00
         vertex 6.468253e+00 1.000000e+01 7.616148e+00
      endloop
   endfacet
   facet normal -5.517675e-01 -0.000000e+00 -8.339979e-01
      outer loop
         vertex 6.468253e+00 1.000000e+01 7.616148e+00
         vertex 6.833521e+00 0.000000e+00 7.374489e+00
         vertex 6.468253e+00 0.000000e+00 7.616148e+00
      endloop
   endfacet
   facet normal -4.244568e-01 -0.000000e+00 -9.054482e-01
      outer loop
         vertex 6.468253e+00 1.000000e+01 7.616148e+00
         vertex 6.468253e+00 0.000000e+00 7.616148e+00
         vertex 6.071693e+00 1.000000e+01 7.802048e+00
      endloop
   endfacet
   facet normal -4.244568e-01 -0.000000e+00 -9.054482e-01
      outer loop
         vertex 6.071693e+00 1.000000e+01 7.802048e+00
         vertex 6.468253e+00 0.000000e+00 7.616148e+00
         vertex 6.071693e+00 0.000000e+00 7.802048e+00
      endloop
   endfacet
   facet normal -2.880991e-01 -0.000000e+00 -9.576006e-01
      outer loop
         vertex 6.071693e+00 1.000000e+01 7.802048e+00
         vertex 6.071693e+00 0.000000e+00 7.802048e+00
         vertex 5.652290e+00 1.000000e+01 7.928228e+00
      endloop
   endfacet
   facet normal -2.880991e-01 -0.000000e+00 -9.576006e-01
      outer loop
         vertex 5.652290e+00 1.000000e+01 7.928228e+00
         vertex 6.071693e+00 0.000000e+00 7.802048e+00
         vertex 5.652290e+00 0.000000e+00 7.928228e+00
      endloop
   endfacet
   facet normal -1.456013e-01 -0.000000e+00 -9.893433e-01
      outer loop
         vertex 5.652290e+00 1.000000e+01 7.928228e+00
         vertex 5.652290e+00 0.000000e+00 7.928228e+00
         vertex 5.218986e+00 1.000000e+01 7.991997e+00
      endloop
   endfacet
   facet normal -1.456013e-01 -0.000000e+00 -9.893433e-01
      outer loop
         vertex 5.218986e+00 1.000000e+01 7.991997e+00
         vertex 5.652290e+00 0.000000e+00 7.928228e+00
         vertex 5.218986e+00 0.000000e+00 7.991997e+00
      endloop
   endfacet
   facet normal -3.652174e-02 -0.000000e+00 -9.993329e-01
      outer loop
         vertex 5.218986e+00 1.000000e+01 7.991997e+00
         vertex 5.218986e+00 0.000000e+00 7.991997e+00
         vertex 5.000000e+00 1.000000e+01 8.000000e+00
      endloop
   endfacet
   facet normal -3.652174e-02 -2.683575e-18 -9.993329e-01
      outer loop
         vertex 5.000000e+00 1.000000e+01 8.000000e+00
         vertex 5.218986e+00 0.000000e+00 7.991997e+00
         vertex 5.000000e+00 0.000000e+00 8.000000e+00
      endloop
   endfacet
   facet normal 3.652174e-02 2.683575e-18 -9.993329e-01
      outer loop
         vertex 5.000000e+00 1.000000e+01 8.000000e+00
         vertex 5.000000e+00 0.000000e+00 8.000000e+00
         vertex 4.781014e+00 1.000000e+01 7.991997e+00
      endloop
   endfacet
   facet normal 3.652174e-02 0.000000e+00 -9.993329e-01
      outer loop
         vertex 4.781014e+00 1.000000e+01 7.991997e+00
         vertex 5.000000e+00 0.000000e+00 8.000000e+00
         vertex 4.781014e+00 0.000000e+00 7.991997e+00
      endloop
   endfacet
   facet normal 1.456013e-01 0.000000e+00 -9.893433e-01
      outer loop
         vertex 4.781014e+00 1.000000e+01 7.991997e+00
         vertex 4.781014e+00 0.000000e+00 7.991997e+00
         vertex 4.347709e+00 1.000000e+01 7.928228e+00
      endloop
   endfacet
   facet normal 1.456013e-01 0.000000e+00 -9.893433e-01
      outer loop
         vertex 4.347709e+00 1.000000e+01 7.928228e+00
         vertex 4.781014e+00 0.000000e+00 7.991997e+00
         vertex 4.347709e+00 0.000000e+00 7.928228e+00
      endloop
   endfacet
   facet normal 2.880991e-01 0.000000e+00 -9.576006e-01
      outer loop
         vertex 4.347709e+00 1.000000e+01 7.928228e+00
         vertex 4.347709e+00 0.000000e+00 7.928228e+00
         vertex 3.928307e+00 1.000000e+01 7.802048e+00
      endloop
   endfacet
   facet normal 2.880991e-01 0.000000e+00 -9.576006e-01
      outer loop
         vertex 3.928307e+00 1.000000e+01 7.802048e+00
         vertex 4.347709e+00 0.000000e+00 7.928228e+00
         vertex 3.928307e+00 0.000000e+00 7.802048e+00
      endloop
   endfacet
   facet normal 4.244568e-01 0.000000e+00 -9.054482e-01
      outer loop
         vertex 3.928307e+00 1.000000e+01 7.802048e+00
         vertex 3.928307e+00 0.000000e+00 7.802048e+00
         vertex 3.531746e+00 1.000000e+01 7.616148e+00
      endloop
   endfacet
   facet normal 4.244568e-01 0.000000e+00 -9.054482e-01
      outer loop
         vertex 3.531746e+00 1.000000e+01 7.616148e+00
         vertex 3.928307e+00 0.000000e+00 7.802048e+00
         vertex 3.531746e+00 0.000000e+00 7.616148e+00
      endloop
   endfacet
   facet normal 5.517675e-01 0.000000e+00 -8.339979e-01
      outer loop
         vertex 3.531746e+00 1.000000e+01 7.616148e+00
         vertex 3.531746e+00 0.000000e+00 7.616148e+00
         vertex 3.166479e+00 1.000000e+01 7.374489e+00
      endloop
   endfacet
   facet normal 5.517675e-01 0.000000e+00 -8.339979e-01
      outer loop
         vertex 3.166479e+00 1.000000e+01 7.374489e+00
         vertex 3.531746e+00 0.000000e+00 7.616148e+00
         vertex 3.166479e+00 0.000000e+00 7.374489e+00
      endloop
   endfacet
   facet normal 6.673188e-01 0.000000e+00 -7.447722e-01
      outer loop
         vertex 3.166479e+00 1.000000e+01 7.374489e+00
         vertex 3.166479e+00 0.000000e+00 7.374489e+00
         vertex 2.840289e+00 1.000000e+01 7.082222e+00
      endloop
   endfacet
   facet normal 6.673188e-01 0.000000e+00 -7.447722e-01
      outer loop
         vertex 2.840289e+00 1.000000e+01 7.082222e+00
         vertex 3.166479e+00 0.000000e+00 7.374489e+00
         vertex 2.840289e+00 0.000000e+00 7.082222e+00
      endloop
   endfacet
   facet normal 7.686471e-01 0.000000e+00 -6.396730e-01
      outer loop
         vertex 2.840289e+00 1.000000e+01 7.082222e+00
         vertex 2.840289e+00 0.000000e+00 7.082222e+00
         vertex 2.560131e+00 1.000000e+01 6.745577e+00
      endloop
   endfacet
   facet normal 7.686471e-01 0.000000e+00 -6.396730e-01
      outer loop
         vertex 2.560131e+00 1.000000e+01 6.745577e+00
         vertex 2.840289e+00 0.000000e+00 7.082222e+00
         vertex 2.560131e+00 0.000000e+00 6.745577e+00
      endloop
   endfacet
   facet normal 8.535933e-01 0.000000e+00 -5.209400e-01
      outer loop
         vertex 2.560131e+00 1.000000e+01 6.745577e+00
         vertex 2.560131e+00 0.000000e+00 6.745577e+00
         vertex 2.331974e+00 1.000000e+01 6.371727e+00
      endloop
   endfacet
   facet normal 8.535933e-01 0.000000e+00 -5.209400e-01
      outer loop
         vertex 2.331974e+00 1.000000e+01 6.371727e+00
         vertex 2.560131e+00 0.000000e+00 6.745577e+00
         vertex 2.331974e+00 0.000000e+00 6.371727e+00
      endloop
   endfacet
   facet normal 9.203461e-01 0.000000e+00 -3.911050e-01
      outer loop
         vertex 2.331974e+00 1.000000e+01 6.371727e+00
         vertex 2.331974e+00 0.000000e+00 6.371727e+00
         vertex 2.160680e+00 1.000000e+01 5.968641e+00
      endloop
   endfacet
   facet normal 9.203461e-01 0.000000e+00 -3.911050e-01
      outer loop
         vertex 2.160680e+00 1.000000e+01 5.968641e+00
         vertex 2.331974e+00 0.000000e+00 6.371727e+00
         vertex 2.160680e+00 0.000000e+00 5.968641e+00
      endloop
   endfacet
   facet normal 9.674838e-01 0.000000e+00 -2.529331e-01
      outer loop
         vertex 2.160680e+00 1.000000e+01 5.968641e+00
         vertex 2.160680e+00 0.000000e+00 5.968641e+00
         vertex 2.049903e+00 1.000000e+01 5.544910e+00
      endloop
   endfacet
   facet normal 9.674838e-01 0.000000e+00 -2.529331e-01
      outer loop
         vertex 2.049903e+00 1.000000e+01 5.544910e+00
         vertex 2.160680e+00 0.000000e+00 5.968641e+00
         vertex 2.049903e+00 0.000000e+00 5.544910e+00
      endloop
   endfacet
   facet normal 9.940009e-01 0.000000e+00 -1.093715e-01
      outer loop
         vertex 2.049903e+00 1.000000e+01 5.544910e+00
         vertex 2.049903e+00 0.000000e+00 5.544910e+00
         vertex 2.002001e+00 1.000000e+01 5.109566e+00
      endloop
   endfacet
   facet normal 9.940009e-01 0.000000e+00 -1.093715e-01
      outer loop
         vertex 2.002001e+00 1.000000e+01 5.109566e+00
         vertex 2.049903e+00 0.000000e+00 5.544910e+00
         vertex 2.002001e+00 0.000000e+00 5.109566e+00
      endloop
   endfacet
   facet normal 9.993328e-01 0.000000e+00 3.652220e-02
      outer loop
         vertex 2.002001e+00 1.000000e+01 5.109566e+00
         vertex 2.002001e+00 0.000000e+00 5.109566e+00
         vertex 2.017997e+00 1.000000e+01 4.671886e+00
      endloop
   endfacet
   facet normal 9.993328e-01 0.000000e+00 3.652220e-02
      outer loop
         vertex 2.017997e+00 1.000000e+01 4.671886e+00
         vertex 2.002001e+00 0.000000e+00 5.109566e+00
         vertex 2.017997e+00 0.000000e+00 4.671886e+00
      endloop
   endfacet
   facet normal 9.833657e-01 0.000000e+00 1.816366e-01
      outer loop
         vertex 2.017997e+00 1.000000e+01 4.671886e+00
         vertex 2.017997e+00 0.000000e+00 4.671886e+00
         vertex 2.097549e+00 1.000000e+01 4.241200e+00
      endloop
   endfacet
   facet normal 9.833657e-01 0.000000e+00 1.816366e-01
      outer loop
         vertex 2.097549e+00 1.000000e+01 4.241200e+00
         vertex 2.017997e+00 0.000000e+00 4.671886e+00
         vertex 2.097549e+00 0.000000e+00 4.241200e+00
      endloop
   endfacet
   facet normal 9.464397e-01 0.000000e+00 3.228807e-01
      outer loop
         vertex 2.097549e+00 1.000000e+01 4.241200e+00
         vertex 2.097549e+00 0.000000e+00 4.241200e+00
         vertex 2.238961e+00 1.000000e+01 3.826686e+00
      endloop
   endfacet
   facet normal 9.464397e-01 0.000000e+00 3.228807e-01
      outer loop
         vertex 2.238961e+00 1.000000e+01 3.826686e+00
         vertex 2.097549e+00 0.000000e+00 4.241200e+00
         vertex 2.238961e+00 0.000000e+00 3.826686e+00
      endloop
   endfacet
   facet normal 8.893421e-01 0.000000e+00 4.572423e-01
      outer loop
         vertex 2.238961e+00 1.000000e+01 3.826686e+00
         vertex 2.238961e+00 0.000000e+00 3.826686e+00
         vertex 2.439221e+00 1.000000e+01 3.437179e+00
      endloop
   endfacet
   facet normal 8.893421e-01 0.000000e+00 4.572423e-01
      outer loop
         vertex 2.439221e+00 1.000000e+01 3.437179e+00
         vertex 2.238961e+00 0.000000e+00 3.826686e+00
         vertex 2.439221e+00 0.000000e+00 3.437179e+00
      endloop
   endfacet
   facet normal 8.132898e-01 0.000000e+00 5.818588e-01
      outer loop
         vertex 2.439221e+00 1.000000e+01 3.437179e+00
         vertex 2.439221e+00 0.000000e+00 3.437179e+00
         vertex 2.694058e+00 1.000000e+01 3.080981e+00
      endloop
   endfacet
   facet normal 8.132898e-01 0.000000e+00 5.818588e-01
      outer loop
         vertex 2.694058e+00 1.000000e+01 3.080981e+00
         vertex 2.439221e+00 0.000000e+00 3.437179e+00
         vertex 2.694058e+00 0.000000e+00 3.080981e+00
      endloop
   endfacet
   facet normal 7.199035e-01 0.000000e+00 6.940741e-01
      outer loop
         vertex 2.694058e+00 1.000000e+01 3.080981e+00
         vertex 2.694058e+00 0.000000e+00 3.080981e+00
         vertex 2.998044e+00 1.000000e+01 2.765683e+00
      endloop
   endfacet
   facet normal 7.199035e-01 0.000000e+00 6.940741e-01
      outer loop
         vertex 2.998044e+00 1.000000e+01 2.765683e+00
         vertex 2.694058e+00 0.000000e+00 3.080981e+00
         vertex 2.998044e+00 0.000000e+00 2.765683e+00
      endloop
   endfacet
   facet normal 6.111736e-01 0.000000e+00 7.914966e-01
      outer loop
         vertex 2.998044e+00 1.000000e+01 2.765683e+00
         vertex 2.998044e+00 0.000000e+00 2.765683e+00
         vertex 3.344697e+00 1.000000e+01 2.498006e+00
      endloop
   endfacet
   facet normal 6.111736e-01 0.000000e+00 7.914966e-01
      outer loop
         vertex 3.344697e+00 1.000000e+01 2.498006e+00
         vertex 2.998044e+00 0.000000e+00 2.765683e+00
         vertex 3.344697e+00 0.000000e+00 2.498006e+00
      endloop
   endfacet
   facet normal 4.894181e-01 0.000000e+00 8.720493e-01
      outer loop
         vertex 3.344697e+00 1.000000e+01 2.498006e+00
         vertex 3.344697e+00 0.000000e+00 2.498006e+00
         vertex 3.726630e+00 1.000000e+01 2.283655e+00
      endloop
   endfacet
   facet normal 4.894181e-01 0.000000e+00 8.720493e-01
      outer loop
         vertex 3.726630e+00 1.000000e+01 2.283655e+00
         vertex 3.344697e+00 0.000000e+00 2.498006e+00
         vertex 3.726630e+00 0.000000e+00 2.283655e+00
      endloop
   endfacet
   facet normal 3.572309e-01 0.000000e+00 9.340161e-01
      outer loop
         vertex 3.726630e+00 1.000000e+01 2.283655e+00
         vertex 3.726630e+00 0.000000e+00 2.283655e+00
         vertex 4.135703e+00 1.000000e+01 2.127198e+00
      endloop
   endfacet
   facet normal 3.572309e-01 0.000000e+00 9.340161e-01
      outer loop
         vertex 4.135703e+00 1.000000e+01 2.127198e+00
         vertex 3.726630e+00 0.000000e+00 2.283655e+00
         vertex 4.135703e+00 0.000000e+00 2.127198e+00
      endloop
   endfacet
   facet normal 2.174299e-01 0.000000e+00 9.760759e-01
      outer loop
         vertex 4.135703e+00 1.000000e+01 2.127198e+00
         vertex 4.135703e+00 0.000000e+00 2.127198e+00
         vertex 4.563196e+00 1.000000e+01 2.031970e+00
      endloop
   endfacet
   facet normal 2.174299e-01 0.000000e+00 9.760759e-01
      outer loop
         vertex 4.563196e+00 1.000000e+01 2.031970e+00
         vertex 4.135703e+00 0.000000e+00 2.127198e+00
         vertex 4.563196e+00 0.000000e+00 2.031970e+00
      endloop
   endfacet
   facet normal 7.299550e-02 0.000000e+00 9.973323e-01
      outer loop
         vertex 4.563196e+00 1.000000e+01 2.031970e+00
         vertex 4.563196e+00 0.000000e+00 2.031970e+00
         vertex 5.000000e+00 1.000000e+01 2.000000e+00
      endloop
   endfacet
   facet normal 7.299550e-02 0.000000e+00 9.973323e-01
      outer loop
         vertex 5.000000e+00 1.000000e+01 2.000000e+00
         vertex 4.563196e+00 0.000000e+00 2.031970e+00
         vertex 5.000000e+00 0.000000e+00 2.000000e+00
      endloop
   endfacet
endsolid