solid Pyramid
   facet normal 0.000000e+00 -1.000000e+00 0.000000e+00
      outer loop
         vertex 1.000010e+01 1.000000e-04 1.005828e-04
         vertex 1.000010e+01 1.000000e-04 1.000010e+01
         vertex 1.000000e-04 1.000000e-04 1.005828e-04
      endloop
   endfacet
   facet normal 0.000000e+00 -1.000000e+00 0.000000e+00
      outer loop
         vertex 1.000000e-04 1.000000e-04 1.005828e-04
         vertex 1.000010e+01 1.000000e-04 1.000010e+01
         vertex 1.000000e-04 1.000000e-04 1.000010e+01
      endloop
   endfacet
   facet normal 0.000000e+00 4.472136e-01 8.944272e-01
      outer loop
         vertex 5.000100e+00 1.000010e+01 5.000100e+00
         vertex 1.000000e-04 1.000000e-04 1.000010e+01
         vertex 1.000010e+01 1.000000e-04 1.000010e+01
      endloop
   endfacet
   facet normal -8.944272e-01 4.472136e-01 0.000000e+00
      outer loop
         vertex 5.000100e+00 1.000010e+01 5.000100e+00
         vertex 1.000000e-04 1.000000e-04 1.005828e-04
         vertex 1.000000e-04 1.000000e-04 1.000010e+01
      endloop
   endfacet
   facet normal 8.944272e-01 4.472136e-01 0.000000e+00
      outer loop
         vertex 5.000100e+00 1.000010e+01 5.000100e+00
         vertex 1.000010e+01 1.000000e-04 1.000010e+01
         vertex 1.000010e+01 1.000000e-04 1.005828e-04
      endloop
   endfacet
   facet normal 0.000000e+00 4.472136e-01 -8.944272e-01
      outer loop
         vertex 5.000100e+00 1.000010e+01 5.000100e+00
         vertex 1.000010e+01 1.000000e-04 1.005828e-04
         vertex 1.000000e-04 1.000000e-04 1.005828e-04
      endloop
   endfacet
endsolid
